<svg width="17" height="18" viewBox="0 0 17 18" fill="none" xmlns="http://www.w3.org/2000/svg">
<g clip-path="url(#clip0_0_12)">
<path d="M13.1912 7.61029C13.1912 9.06576 12.7187 10.4102 11.9228 11.5011L15.9372 15.5187C16.3336 15.915 16.3336 16.5587 15.9372 16.9551C15.5409 17.3515 14.8971 17.3515 14.5008 16.9551L10.4863 12.9375C9.39554 13.7366 8.05105 14.2059 6.59559 14.2059C2.95216 14.2059 0 11.2537 0 7.61029C0 3.96686 2.95216 1.01471 6.59559 1.01471C10.239 1.01471 13.1912 3.96686 13.1912 7.61029ZM6.59559 12.1765C7.19523 12.1765 7.78899 12.0584 8.34299 11.8289C8.89698 11.5994 9.40035 11.2631 9.82436 10.8391C10.2484 10.4151 10.5847 9.91169 10.8142 9.35769C11.0437 8.8037 11.1618 8.20993 11.1618 7.61029C11.1618 7.01065 11.0437 6.41689 10.8142 5.86289C10.5847 5.3089 10.2484 4.80553 9.82436 4.38152C9.40035 3.95751 8.89698 3.62117 8.34299 3.3917C7.78899 3.16222 7.19523 3.04412 6.59559 3.04412C5.99595 3.04412 5.40218 3.16222 4.84819 3.3917C4.29419 3.62117 3.79082 3.95751 3.36681 4.38152C2.9428 4.80553 2.60646 5.3089 2.37699 5.86289C2.14752 6.41689 2.02941 7.01065 2.02941 7.61029C2.02941 8.20993 2.14752 8.8037 2.37699 9.35769C2.60646 9.91169 2.9428 10.4151 3.36681 10.8391C3.79082 11.2631 4.29419 11.5994 4.84819 11.8289C5.40218 12.0584 5.99595 12.1765 6.59559 12.1765Z" fill="black"/>
</g>
<defs>
<clipPath id="clip0_0_12">
<rect width="16.2815" height="17.7391" fill="white" transform="scale(1.01471)"/>
</clipPath>
</defs>
</svg>
