<svg width="15" height="18" viewBox="0 0 15 18" fill="none" xmlns="http://www.w3.org/2000/svg">
<g clip-path="url(#clip0_0_14)">
<path d="M7.10294 1.01471C6.54168 1.01471 6.08823 1.46815 6.08823 2.02941V2.63823C3.77343 3.10754 2.02941 5.15597 2.02941 7.61029V8.20643C2.02941 9.69678 1.48083 11.1364 0.491495 12.2526L0.256844 12.5158C-0.00951599 12.8138 -0.0729351 13.2419 0.0887836 13.6066C0.250502 13.9712 0.615162 14.2059 1.0147 14.2059H13.1912C13.5907 14.2059 13.9522 13.9712 14.1171 13.6066C14.282 13.2419 14.2154 12.8138 13.949 12.5158L13.7144 12.2526C12.725 11.1364 12.1765 9.69995 12.1765 8.20643V7.61029C12.1765 5.15597 10.4324 3.10754 8.11764 2.63823V2.02941C8.11764 1.46815 7.66419 1.01471 7.10294 1.01471ZM8.53938 16.657C8.91989 16.2765 9.13235 15.7596 9.13235 15.2206H7.10294H5.07352C5.07352 15.7596 5.28598 16.2765 5.66649 16.657C6.04701 17.0375 6.56387 17.25 7.10294 17.25C7.642 17.25 8.15886 17.0375 8.53938 16.657Z" fill="black"/>
</g>
<defs>
<clipPath id="clip0_0_14">
<rect width="14.2463" height="17.7391" fill="white" transform="scale(1.01471)"/>
</clipPath>
</defs>
</svg>
